<?xml version="1.0" standalone="no"?>
<!DOCTYPE svg PUBLIC "-//W3C//DTD SVG 20010904//EN"
 "http://www.w3.org/TR/2001/REC-SVG-20010904/DTD/svg10.dtd">
<svg version="1.0" xmlns="http://www.w3.org/2000/svg"
 width="640.000000pt" height="640.000000pt" viewBox="0 0 640.000000 640.000000"
 preserveAspectRatio="xMidYMid meet">

<g transform="translate(0.000000,640.000000) scale(0.100000,-0.100000)"
fill="#000000" stroke="none">
<path d="M0 3200 l0 -3200 3200 0 3200 0 0 3200 0 3200 -3200 0 -3200 0 0
-3200z m3454 2961 c6 -5 64 -11 129 -14 65 -3 124 -10 131 -16 8 -7 78 -14
160 -18 141 -6 146 -5 140 13 -3 11 -2 14 3 8 4 -6 29 -14 55 -18 26 -4 50
-11 53 -15 2 -5 20 -12 39 -15 18 -4 61 -20 95 -36 34 -17 68 -30 76 -30 7 0
16 -4 19 -9 3 -5 18 -12 33 -15 16 -4 52 -18 80 -32 29 -13 79 -37 110 -52 32
-15 61 -32 65 -38 4 -7 20 -15 35 -19 16 -3 42 -17 60 -31 17 -13 37 -24 43
-24 6 0 13 -6 16 -14 3 -8 13 -17 22 -20 44 -16 128 -83 118 -93 -16 -16 -43
-10 -68 14 -15 15 -31 23 -35 18 -5 -4 -2 -10 5 -12 6 -3 12 -13 12 -24 0 -27
-37 -25 -91 6 -24 14 -51 28 -59 32 -8 3 -17 10 -20 13 -3 4 -16 11 -30 15
-22 7 -23 6 -11 -9 7 -9 20 -16 27 -16 8 0 14 -4 14 -9 0 -5 8 -11 18 -15 9
-3 26 -11 37 -18 40 -26 171 -115 222 -151 29 -20 55 -37 58 -37 13 0 3 21
-12 27 -29 10 -73 55 -73 75 0 21 44 26 56 6 5 -7 10 -4 16 11 7 21 9 21 30 6
43 -29 290 -260 311 -290 12 -16 22 -36 24 -44 1 -8 6 -17 12 -20 6 -4 7 -12
1 -21 -6 -8 -10 -10 -10 -5 0 6 -4 5 -8 -2 -6 -9 -26 3 -70 39 -34 28 -65 49
-67 46 -3 -2 13 -24 36 -47 51 -55 76 -101 55 -101 -8 0 -16 -6 -19 -12 -4
-10 -7 -10 -18 0 -24 22 -39 14 -37 -19 2 -25 -1 -32 -17 -35 -11 -1 -23 2
-28 9 -6 8 -7 6 -3 -5 6 -20 -9 -34 -19 -17 -4 5 -13 8 -21 5 -7 -3 -19 3 -26
13 -7 10 -17 19 -23 20 -5 1 -32 21 -59 44 -27 23 -54 44 -60 46 -6 2 -34 25
-62 50 -28 25 -68 60 -89 76 -21 17 -53 42 -71 58 -17 15 -37 27 -42 27 -6 0
-28 15 -48 33 -41 35 -87 65 -151 97 -24 11 -43 24 -43 29 0 5 -8 11 -17 15
-20 6 -37 16 -100 58 -23 15 -45 28 -49 28 -7 0 -41 15 -149 66 -28 13 -58 24
-67 24 -9 0 -19 4 -22 9 -3 4 -25 11 -48 15 -23 4 -47 11 -53 15 -5 5 -30 11
-55 15 -24 4 -49 11 -55 16 -5 5 -51 13 -100 19 -50 6 -115 15 -145 20 -30 5
-85 10 -122 10 -37 1 -70 6 -73 11 -7 12 -152 14 -159 2 -3 -5 -91 -12 -195
-15 -104 -3 -198 -11 -208 -16 -10 -6 -49 -15 -88 -20 -153 -22 -211 -32 -226
-41 -9 -4 -38 -12 -65 -15 -27 -4 -53 -11 -59 -15 -5 -4 -37 -11 -69 -15 -33
-4 -66 -10 -75 -15 -9 -4 -43 -16 -76 -25 -33 -10 -69 -21 -80 -26 -11 -4 -31
-11 -45 -14 -60 -15 -318 -145 -362 -182 -7 -6 -25 -17 -38 -23 -37 -16 -72
-37 -79 -47 -9 -12 -78 -63 -86 -63 -4 0 -24 -13 -45 -30 -21 -16 -42 -30 -47
-30 -6 0 -40 -27 -76 -60 -36 -33 -69 -60 -73 -60 -13 0 -184 -173 -184 -185
0 -6 -18 -29 -40 -50 -22 -21 -40 -44 -40 -50 0 -5 -9 -16 -20 -23 -11 -7 -20
-18 -20 -25 0 -7 -16 -28 -35 -47 -19 -19 -35 -38 -35 -43 0 -5 -8 -17 -17
-26 -21 -19 -41 -49 -49 -73 -4 -10 -10 -18 -14 -18 -5 0 -23 -30 -41 -67 -17
-38 -38 -75 -44 -83 -19 -22 -105 -193 -105 -207 0 -7 -4 -13 -9 -13 -5 0 -12
-12 -15 -27 -4 -16 -13 -41 -21 -58 -31 -69 -49 -111 -50 -120 -1 -12 -13 -44
-24 -65 -5 -9 -12 -31 -16 -50 -4 -19 -11 -39 -15 -45 -4 -5 -11 -31 -14 -57
-4 -27 -11 -48 -17 -48 -5 0 -9 -14 -9 -30 0 -17 -4 -38 -9 -48 -5 -9 -15 -51
-22 -92 -14 -89 -29 -70 -17 23 5 34 9 72 9 85 1 12 5 22 9 22 4 0 11 26 15
58 4 31 10 62 15 67 4 6 11 31 14 57 4 26 11 50 16 53 4 3 11 23 15 45 4 22
10 42 15 45 4 3 11 20 14 39 4 19 13 47 20 62 20 40 23 76 9 81 -7 3 -13 -1
-13 -7 0 -7 -6 -26 -14 -43 -42 -92 -56 -127 -56 -137 0 -7 -9 -24 -20 -40
-11 -15 -17 -30 -13 -33 3 -4 2 -12 -3 -19 -13 -17 -30 -73 -39 -123 -4 -22
-10 -44 -15 -50 -4 -5 -10 -59 -13 -120 -8 -139 -25 -212 -49 -207 -10 2 -18
7 -18 12 0 4 -12 11 -26 14 -25 7 -25 7 -19 89 4 45 9 89 12 97 3 8 5 25 4 38
-2 13 2 28 7 35 5 7 12 36 15 66 4 30 11 59 17 65 5 5 10 19 10 31 0 11 6 32
14 47 8 15 17 42 21 60 4 18 11 38 16 44 6 7 11 35 12 63 1 28 7 53 13 55 6 2
14 17 18 33 3 15 24 64 45 108 51 103 71 151 71 163 0 6 3 12 8 14 9 4 52 91
52 107 0 6 4 11 9 11 5 0 11 8 15 18 3 9 17 36 30 60 13 23 20 42 14 42 -13 0
-35 -27 -48 -58 -6 -13 -19 -26 -30 -29 -11 -3 -20 -10 -20 -15 0 -6 -13 -27
-30 -48 -16 -21 -30 -43 -30 -49 0 -6 -7 -11 -15 -11 -21 0 -19 20 10 74 13
25 20 46 15 46 -17 0 -11 20 15 54 14 18 25 36 25 41 0 4 13 24 28 44 16 20
32 43 35 51 12 26 31 54 75 107 23 28 42 56 42 61 0 6 18 26 40 45 22 19 40
38 40 43 0 5 41 50 91 99 51 50 89 81 85 71 -7 -19 -6 -20 14 -1 11 10 18 25
15 32 -2 8 -1 11 4 8 5 -3 21 0 35 7 20 8 25 16 20 32 -4 16 -3 18 5 7 8 -12
15 -10 45 13 20 15 36 33 36 40 0 8 8 16 17 20 18 5 53 26 63 36 18 18 100 80
105 80 4 0 25 17 46 37 22 21 53 45 69 53 16 8 60 35 97 60 90 60 92 61 213
121 137 68 199 96 230 104 14 4 30 11 35 15 6 4 26 11 45 15 19 4 40 11 45 15
6 4 24 11 40 15 35 10 34 9 60 19 76 29 98 36 115 36 11 0 20 4 20 9 0 5 27
12 60 16 33 4 62 11 65 15 3 4 29 11 58 15 28 3 61 10 72 15 22 10 138 27 280
40 109 10 554 3 569 -9z m1946 -961 c-8 -5 -19 -10 -25 -10 -5 0 -3 5 5 10 8
5 20 10 25 10 6 0 3 -5 -5 -10z m-2605 -664 c503 -377 513 -385 530 -432 9
-27 21 -58 25 -69 5 -11 25 -67 44 -125 19 -58 69 -204 111 -325 42 -121 92
-269 112 -330 19 -60 66 -198 103 -305 37 -107 77 -222 88 -255 80 -236 143
-409 153 -421 9 -11 64 -14 280 -14 l269 0 0 -385 0 -385 -143 0 -143 0 -165
122 c-90 68 -277 206 -414 308 -137 102 -293 217 -345 256 -68 52 -98 69 -107
62 -7 -6 -23 -33 -37 -62 -13 -28 -94 -194 -180 -368 l-155 -318 -405 0 c-223
0 -406 1 -406 3 0 2 13 30 29 63 105 217 234 481 329 674 60 124 148 304 195
400 47 96 132 272 190 390 l105 214 -46 131 c-25 71 -96 279 -157 460 l-112
330 -297 3 -296 2 0 378 c0 208 2 381 4 383 2 2 77 3 166 1 l162 -3 513 -383z
m-885 4 l0 -380 -140 0 -140 0 0 380 0 380 140 0 140 0 0 -380z m4094 -213
c13 -13 28 -36 32 -53 4 -16 18 -49 31 -72 13 -24 26 -64 30 -88 3 -25 10 -47
14 -50 5 -3 9 -16 9 -29 0 -13 4 -26 9 -30 5 -3 13 -34 16 -70 4 -36 11 -68
16 -71 5 -3 9 -20 9 -39 0 -19 4 -36 8 -39 5 -3 7 -19 4 -36 -2 -16 1 -37 8
-45 13 -16 30 -364 18 -372 -5 -2 -8 -25 -8 -50 0 -39 -2 -44 -15 -33 -8 7
-15 27 -15 45 0 35 -22 86 -45 105 -8 7 -15 19 -15 26 0 8 -4 14 -9 14 -5 0
-12 27 -16 60 -4 33 -10 60 -15 60 -9 0 -20 -76 -20 -140 0 -47 -18 -78 -39
-66 -17 11 -41 68 -41 97 0 15 -5 31 -10 34 -6 4 -10 12 -9 18 2 23 -13 57
-26 57 -7 0 -27 -16 -44 -36 -26 -29 -34 -33 -44 -22 -25 27 -35 56 -42 114
-4 32 -11 64 -15 69 -5 6 -12 44 -15 85 -4 41 -12 80 -17 87 -5 6 -8 37 -7 67
1 31 0 59 -4 62 -3 4 -1 16 4 27 6 11 10 58 9 106 -2 47 -2 96 -2 108 2 24 51
57 112 73 22 6 40 14 40 19 0 10 39 29 62 30 9 1 28 -9 42 -22z m17 -1382 c-5
-11 -12 -69 -16 -130 -3 -60 -10 -114 -15 -120 -5 -6 -12 -34 -16 -63 -3 -28
-10 -52 -14 -52 -4 0 -10 -18 -14 -40 -3 -23 -10 -49 -15 -58 -11 -20 -23 -53
-26 -67 0 -5 -4 -18 -8 -27 -14 -37 -20 -53 -22 -63 -2 -13 -14 -45 -24 -65
-5 -9 -12 -30 -16 -49 -4 -18 -13 -44 -21 -59 -8 -15 -14 -35 -14 -44 0 -9 -4
-19 -9 -22 -5 -3 -12 -22 -15 -41 -4 -20 -17 -56 -30 -79 -13 -24 -26 -56 -30
-72 -4 -15 -16 -40 -27 -55 -11 -15 -19 -31 -18 -36 2 -15 -13 -53 -22 -53
-16 0 -10 21 25 94 19 39 42 91 51 116 10 25 24 59 31 77 8 17 14 38 14 46 0
9 4 18 9 21 5 4 12 24 16 46 4 22 11 42 15 45 5 3 12 27 16 53 3 26 10 52 14
57 5 6 11 27 15 48 4 20 11 39 15 42 5 3 11 23 15 45 4 22 11 42 16 46 5 3 9
18 9 35 0 16 5 29 10 29 6 0 10 6 9 13 -3 17 12 69 23 84 6 7 8 19 5 28 -4 8
-2 17 3 20 6 4 10 30 10 60 0 29 4 55 10 57 5 2 12 52 16 111 4 59 11 110 15
113 5 3 10 22 11 42 1 20 4 3 5 -38 2 -41 0 -84 -6 -95z m-5499 -655 c5 0 8
-6 5 -14 -3 -8 0 -20 8 -26 8 -6 11 -18 8 -26 -3 -8 0 -14 6 -14 6 0 11 -11
11 -25 0 -14 4 -25 9 -25 5 0 12 -13 16 -30 4 -16 11 -30 16 -30 5 0 9 -7 9
-15 0 -17 31 -87 43 -96 4 -3 7 -10 5 -15 -4 -14 141 -313 162 -334 3 -3 11
-16 18 -30 16 -31 31 -57 57 -95 33 -50 45 -69 55 -92 5 -12 18 -28 30 -35 11
-7 20 -18 20 -23 0 -6 16 -26 35 -45 19 -19 35 -39 35 -44 0 -12 203 -211 267
-262 49 -40 219 -154 229 -154 4 0 15 -6 23 -14 38 -34 340 -186 369 -186 6 0
23 -6 39 -14 51 -27 101 -46 116 -46 9 0 18 -4 21 -9 3 -5 23 -12 43 -16 21
-4 43 -10 48 -15 6 -4 30 -12 55 -18 81 -19 135 -34 155 -42 11 -5 31 -11 45
-13 14 -3 36 -8 50 -12 14 -4 39 -9 55 -12 17 -3 35 -9 41 -14 5 -4 47 -11 92
-15 46 -4 85 -11 88 -15 3 -5 39 -9 80 -9 43 0 74 -4 74 -10 0 -6 29 -10 68
-10 37 0 74 -4 82 -10 28 -18 -42 -33 -159 -35 -77 -1 -116 -6 -119 -13 -2 -7
0 -12 5 -13 4 0 46 -5 93 -9 47 -5 103 -12 125 -17 35 -8 37 -10 18 -17 -14
-4 -20 -12 -16 -22 4 -11 -6 -14 -48 -14 -88 0 -364 22 -369 30 -3 4 -32 10
-64 14 -33 4 -64 10 -70 15 -6 5 -32 12 -58 15 -26 4 -50 11 -53 15 -2 5 -27
11 -54 15 -28 4 -53 10 -55 15 -3 5 -22 12 -42 16 -20 3 -44 10 -53 15 -9 4
-36 16 -61 25 -64 24 -91 36 -223 99 -65 31 -121 56 -125 56 -16 0 -159 76
-215 115 -32 22 -66 45 -76 50 -9 6 -35 25 -58 43 -22 17 -45 32 -50 32 -13 0
-63 54 -63 67 0 7 -77 89 -170 183 -94 94 -170 176 -170 181 0 6 -33 46 -72
90 -40 44 -75 85 -77 92 -2 7 -23 35 -45 62 -43 52 -62 80 -73 105 -3 8 -16
29 -28 45 -12 17 -38 64 -59 105 -20 41 -48 95 -61 120 -19 38 -32 65 -40 90
-1 3 -7 18 -13 33 -7 16 -12 34 -12 40 0 7 -7 21 -15 31 -8 11 -15 27 -15 37
0 9 -7 30 -15 45 -8 16 -15 36 -15 45 0 8 -4 19 -10 25 -6 6 -6 15 0 24 8 12
10 10 10 -7 0 -13 3 -23 8 -23 4 0 12 -12 18 -27 25 -60 28 -68 29 -78 3 -18
18 -50 36 -76 10 -14 16 -29 12 -33 -3 -3 -1 -6 5 -6 7 0 12 -11 12 -25 0 -14
4 -25 8 -25 4 0 13 -12 20 -27 7 -16 30 -59 52 -98 22 -38 46 -83 55 -100 17
-34 31 -57 62 -102 13 -17 23 -36 23 -41 0 -5 7 -16 16 -23 15 -12 16 -11 10
8 -4 12 -20 46 -36 75 -17 29 -51 96 -76 148 -25 52 -50 103 -55 112 -5 10 -9
25 -9 33 0 8 -9 32 -20 52 -11 21 -20 45 -20 55 0 9 -4 19 -9 23 -5 3 -13 20
-17 37 -3 18 -12 42 -19 53 -7 11 -16 38 -20 60 -4 22 -11 46 -17 52 -6 7 -8
19 -5 28 4 8 2 17 -4 20 -5 4 -6 12 -2 18 5 8 9 7 11 -5 2 -10 8 -18 14 -18z
m5104 -589 c-9 -16 -16 -36 -16 -42 0 -18 -34 -88 -42 -89 -11 0 -10 17 2 38
5 9 21 43 36 75 14 32 28 56 31 54 2 -3 -3 -19 -11 -36z m-76 -195 c0 -3 -4
-8 -10 -11 -5 -3 -10 -1 -10 4 0 6 5 11 10 11 6 0 10 -2 10 -4z"/>
<path d="M4295 5900 c3 -5 8 -10 11 -10 2 0 4 5 4 10 0 6 -5 10 -11 10 -5 0
-7 -4 -4 -10z"/>
<path d="M4330 5890 c0 -5 5 -10 11 -10 5 0 7 5 4 10 -3 6 -8 10 -11 10 -2 0
-4 -4 -4 -10z"/>
<path d="M4395 5860 c-3 -5 40 -31 95 -59 56 -27 100 -45 97 -38 -5 16 -186
107 -192 97z"/>
<path d="M4605 5750 c-3 -5 -1 -10 4 -10 6 0 11 5 11 10 0 6 -2 10 -4 10 -3 0
-8 -4 -11 -10z"/>
<path d="M4790 5729 c0 -5 5 -7 10 -4 6 3 10 8 10 11 0 2 -4 4 -10 4 -5 0 -10
-5 -10 -11z"/>
<path d="M5077 5434 c-8 -8 1 -24 14 -24 5 0 9 7 9 15 0 15 -12 20 -23 9z"/>
<path d="M1707 4883 c-4 -3 -7 -26 -7 -50 0 -36 -3 -43 -17 -41 -34 6 -18 -20
34 -56 35 -24 54 -32 59 -24 4 6 -4 20 -19 33 -22 16 -27 29 -27 63 0 53 10
53 77 2 31 -23 55 -35 59 -29 9 15 -24 47 -81 80 -51 30 -67 34 -78 22z"/>
<path d="M1700 4631 c0 -5 22 -25 49 -45 28 -19 60 -53 73 -76 22 -38 48 -54
48 -27 -2 51 -170 198 -170 148z"/>
<path d="M1685 4504 c-18 -45 -18 -44 0 -44 9 0 20 12 25 26 23 60 0 76 -25
18z"/>
<path d="M1741 4489 c-14 -42 -14 -49 4 -49 14 0 36 57 28 73 -9 15 -21 6 -32
-24z"/>
<path d="M1686 4374 c-3 -9 -6 -56 -6 -105 0 -72 3 -89 15 -89 12 0 15 16 15
87 l0 86 25 -23 c30 -29 31 -36 4 -43 -30 -8 -15 -24 30 -32 22 -3 47 -13 58
-20 23 -18 43 -19 43 -2 0 16 -52 47 -80 47 -17 0 -20 4 -15 21 5 16 -1 30
-26 55 -36 37 -54 42 -63 18z"/>
<path d="M810 1511 c0 -5 7 -12 16 -15 24 -9 28 -7 14 9 -14 17 -30 20 -30 6z"/>
<path d="M860 1452 c0 -12 19 -26 26 -19 2 2 -2 10 -11 17 -9 8 -15 8 -15 2z"/>
<path d="M1960 590 c0 -5 5 -10 10 -10 6 0 10 5 10 10 0 6 -4 10 -10 10 -5 0
-10 -4 -10 -10z"/>
<path d="M2530 390 c0 -5 5 -10 10 -10 6 0 10 5 10 10 0 6 -4 10 -10 10 -5 0
-10 -4 -10 -10z"/>
<path d="M2595 381 c-7 -12 12 -24 25 -16 11 7 4 25 -10 25 -5 0 -11 -4 -15
-9z"/>
<path d="M2640 360 c0 -5 18 -10 40 -10 22 0 40 5 40 10 0 6 -18 10 -40 10
-22 0 -40 -4 -40 -10z"/>
<path d="M2742 348 c5 -15 67 -18 71 -3 1 6 -15 11 -37 13 -28 3 -37 0 -34
-10z"/>
</g>
</svg>
